<svg
        xmlns="http://www.w3.org/2000/svg"
        fillRule="evenodd"
        strokeLinejoin="round"
        strokeMiterlimit="2"
        clipRule="evenodd"
        viewBox="0 0 146 351"
>
    <path fill="none" d="M0 0H145.575V350.674H0z"></path>
    <clipPath id="_clip1">
        <path d="M0 0H145.575V350.674H0z"></path>
    </clipPath>
    <g clipPath="url(#_clip1)">
        <g fillRule="nonzero">
            <path
                    fill="#e6e6e5"
                    d="M132.086 235.334c-2.1 2.6 6.7 7.9 6.7 26.7 0 .9-.4 1.5-1.3 1.9-6.3-3.2-10.4-4.8-6.6 1.9 5 9.1 4.3 27.6-1.2 22.7-1.7-1.5-4-5.9-6.2-6.6 2.5 9.7 7.1 20-1.2 31.9-.7 1-2.7 3.1-3.3 1.7-1.8-4.3-10.4-14-10.5-8.9-.1 6.2-2.5 14-3.2 15.1-13.1 20.7-26.3 29.4-27.6 20.4-.1-.8-1.5-11.9-2.4-10.1-4.5 8.9-4 7.4-6.1 15-3.9 14-21.4-13.8-27.3-27-6.2-14-1.7-18.8-1.7-22.2 0-1.7-2.8-4.2-6.3 7.5-2.3-.4-12.2-12.3-13.6-25.7-1.3-12.8 2.4-15.4.4-16.6-1.7-1-6 4.9-6.9 6.4-13.9-20.8 5.1-44.4-2.2-40.9-5.9 2.8-9.1 11.7-10.4 4.8-1.1-5.9-1.8-10.9 0-18.4 4.2-17.5 36.2-37.3 65.5-37.8 16.6-.3 32.8-2.4 58.9 18.9 16.8 13.7 24.6 49.1 16.8 44.1-.8-.2-4.2-4.2-10.3-4.8z"
            ></path>
            <path
                    fill="#be1e2d"
                    d="M7.086 204.234c-.5-1.9-.3-3.6 2.6-15.8 6.4-26 19.2-21.4 19.8-51.3.6-29.8 16.6-36 26.4-48.2 9-11.3-.2-15.3 13.8-39.2 13.8-23.6-3.7-52.2 4.6-49.5.1 0 16.8 13.6 19.2 17.1 7.1 10.4 6.3 23.5 6.1 23.5 0 21 7.2 16.5 14.3 35.9 3.6 10-3.8 19.5-1.6 28.3 2.8 11.2 15 18.3 9.1 38.8-8.7 30.1 9.8 39.9 14.4 56.6.7 2.4 3.2 5 .6 9-3-5.1-6.6-9.8-10.7-13.2-26.2-21.3-42.3-19.2-58.9-18.9-23.4.4-48.3 12.9-59.7 26.9zm111.4 113.7c-16-1.6-10.6-.4-13.3 3.8-12.9 20.5-19.8 21.4-19.2 22.1 2.2-1.4-5.9 4.2 32.3 3.3 24.7-.4 25.9-26.7.2-29.2zm-61.1 27.7c1.2-.4-7.4-7.1-15.5-25.5-.4-.9-.3-.7-.4-.7-10.7 0-13.2-.8-18.4.4-14 3.3-16 20.3-4.6 24.6 12.9 4.9 38.8 1.1 38.9 1.2z"
            ></path>
            <path
                    fill="#fff"
                    d="M53.786 147.834c-10.3-.1-10.1-15.5.1-15.5 10.1 0 10.3 15.6-.1 15.5zm50.1-25.2c9.3 0 9.1 13.6.1 13.8-9.2.1-8.9-13.8-.1-13.8zm-25.5-7.7c-7.2 0-8.8-9.5-2.1-11.9 11.1-4 12.1 11.9 2.1 11.9zm-2.3-37.3c-5.4-.1-8.9-6.6-4-10.3 9.1-6.8 16 10.5 4 10.3zm-39.7 97.8c-7.6-.1-7-11.4.7-11.3 6.8.1 6.9 11.4-.7 11.3zm64.4-87.8c-3.5 0-6-3-5.4-6.4.4-2.3 4.1-5.3 6.7-4.6 6.7 1.6 5.5 11-1.3 11zm-13.1-51.6c7.3 0 7 11-.2 11-7.3 0-7.1-11 .2-11zm23.1 124.8c-.2 7.7-12.3 5.3-9.8-1.9 1.8-5.2 10-5 9.8 1.9z"
            ></path>
            <path
                    fill="#e9b89d"
                    d="M58.086 165.534c-18.5 12.6-1.9 40.2 22.9 31.2 31.6-11.4 5.6-50.6-22.9-31.2z"
            ></path>
            <path
                    fill="#006838"
                    d="M37.386 239.134c-5.3 0-4 4.7-4-25.3-1.3 0 19-.4 30-.4 0 1.5.2 23.8.2 24.9-10.7 0 3.5.4-26 .4l-.2.4zm74.2-26.4c-5.2 0-20.6.4-31.1.4v25.1h31.5c.6-3.1 0-25.5-.4-25.5zm-2.6 27.7h-28.2s.7 39.6.7 39.7c5.7 0 22.2-.2 25.1 0 4 0 2.4 5.1 2.4-39.7zm-45.8.9c-3.5-.5-9 0-26 0 0 36.4.2 13.9.2 39.2 0 1 1.2.2 26 .2 0-37.4-.2-25.1-.2-39.4z"
            ></path>
            <path
                    fill="#a97c50"
                    d="M77.586 211.134c9.8-1.4 18-5.5 19.7-7.3 5.8-5-2.2-15.9-9.3-17.6-6.9 0-15.9 20.2-15.9 20.3-.3-1-10.8-22.7-17.4-19.4-7.2 2.7-13.1 12.8-7.5 17.4 4.8 3.4 12.8 5.3 19.6 6.8l.9 69.8c3.7 0 7.3 0 10.8-.2.1-4.8-.9-3.6-.9-69.8zm-24.8-7.9c-3.1-3.1 4.2-10.7 7-7.9 2.5 2 6.8 8.7 8.4 11.5 1.4 2.7-13.1-1.3-15.4-3.6zm22.9 4.2c-1.6-.8 6-10.1 8.4-12.6 2.3-1.5 6.6 2.7 7.5 4.8 1.4 3.4-3.1 4.7-6.6 5.9-7.8 2.9-8.8 1.9-9.3 1.9z"
            ></path>
            <path
                    fill="#be1e2d"
                    d="M14.886 257.534c36.4 24.3 52.7-3.6 37.2-14.7-8.1-5.8-14.5-3.3-10.1-7.6 5.8-5.7-7.8-10.8-20.4-6.2-7.6 2.8 2.1 6.4-6.7 28.5zm114.3-4.5c-3.6-9.8-1.8-17-1.7-19.4.3-7.5-17.8-7.4-23-4.3-4.5 2.8.5 6.9.6 7 2.8 3.5-13.3 1.4-16.9 14.3-2.8 9.8 10.9 26.8 40.6 8.3 2.9-1.8 2.4-.6.4-5.9z"
            ></path>
            <path
                    fill="#fff"
                    d="M48.086 244.934c-1.2 3.8-1.8 3.2 2.2 2.7.1.4.5.1-2.3 1.7 1 .8 2.4.8 3.3 2-3.9 1.1-1.2-2.9-12.3 1.2 1.3 1.9 2.4 3.7 3.6 5.5 1.1.2 2.4-.4 3.7.6-4.3 1.5-1.7.3-2.3 3-2.7-.9-1.2-3.1-2.5.6-.4 1.2-1.3.5-1.1-.3.8-4.2 1.8-2-2.1-7.3-2 4.5-.1 3.1.1 8-.4.2-.1.5-1.9-2.4-1.1 2.6-.6 1.9-1.7 2.6-1.5-3.1 2.2-3.7-2.9-2 .2-3 4.1-1.3 4.7-7.4-6.1 2-5.3 1.6-6 2.8-1.8 3.3-1.3 3-1.9 2.8.8-3.7 1.2-3.3-1.1-2.7-.3.1-2 .7-2.1-.3-.1-.9.3-.8 3.2-1.9-.5-.6-.9-1.2-1.4-1.9 3-.6 1 2.1 7-.2 1.9-.7 2.3-.2-1.4-4.9-.8-1-6.9-1.2-1.7-2.1-.1-1.2-1.3-1.9-1.3-3.3 1.6.1 1.8 1.6 2.9 2.2.4-.7.8-1.5 1.2-2.2.5.8.4 1.6.1 2.3-.7 2 .2 2.6 3.4 6.7 1.5-5.3 1.6-4.8 1-5.9-2.6-4.9-.2-1.9 1-1.3.8-.9.7-2.3 2-3 1 3.7-2.9 4.2 2.7 3.1-.6 1.1-1.4 1.5-2.2 1.7-1.9.6-1.8 1.7-2.7 4.9 6-1.6 5.3-1.3 5.9-2.2.6-.6 2-3.6 2.9-3.1zm49.8 0c1.2 3.8 1.8 3.2-2.2 2.7-.1.4-.5.1 2.3 1.7-1 .8-2.4.8-3.3 2 3.9 1.1 1.2-2.9 12.3 1.2-1.3 1.9-2.4 3.7-3.6 5.5-1.1.2-2.4-.4-3.7.6 4.3 1.5 1.7.3 2.3 3 2.7-.9 1.2-3.1 2.5.6.4 1.2 1.3.5 1.1-.3-.8-4.2-1.8-2 2.1-7.3 2 4.5.1 3.1-.1 8 .4.2.1.5 1.9-2.4 1.1 2.6.6 1.9 1.7 2.6 1.5-3.1-2.2-3.7 2.9-2-.2-3-4.1-1.3-4.7-7.4 6.1 2 5.3 1.6 6 2.8 1.8 3.3 1.3 3 1.9 2.8-.8-3.7-1.2-3.3 1.1-2.7.3.1 2 .7 2.1-.3.1-.9-.3-.8-3.2-1.9.5-.6.9-1.2 1.4-1.9-3-.6-1 2.1-7-.2-1.9-.7-2.3-.2 1.4-4.9.8-1 6.9-1.2 1.7-2.1.1-1.2 1.3-1.9 1.3-3.3-1.6.1-1.8 1.6-2.9 2.2-.4-.7-.8-1.5-1.2-2.2-.5.8-.4 1.6-.1 2.3.7 2-.2 2.6-3.4 6.7-1.5-5.3-1.6-4.8-1-5.9 2.6-4.9.2-1.9-1-1.3-.8-.9-.7-2.3-2-3-1 3.7 2.9 4.2-2.7 3.1.6 1.1 1.4 1.5 2.2 1.7 1.9.6 1.8 1.7 2.7 4.9-6-1.6-5.3-1.3-5.9-2.2-.6-.6-2.1-3.6-2.9-3.1z"
            ></path>
        </g>
    </g>
</svg>
