<svg
        xmlns="http://www.w3.org/2000/svg"
        fillRule="evenodd"
        strokeLinejoin="round"
        strokeMiterlimit="2"
        clipRule="evenodd"
        viewBox="0 0 424 40"
>
    <path fill="none" d="M0 0H423.247V39.336H0z"></path>
    <clipPath id="_clip1">
        <path d="M0 0H423.247V39.336H0z"></path>
    </clipPath>
    <g fillRule="nonzero" clipPath="url(#_clip1)">
        <path
                fill="#4f655b"
                d="M39.911 22.144C17.823 22.144 0 15.212 0 15.212v-1.645s18.214 6.632 39.911 6.632c21.747 0 44.996-7.181 45.228-7.253a.972.972 0 11.58 1.857c-.235.073-23.757 7.341-45.808 7.341z"
        ></path>
        <path
                fill="#00ac8b"
                d="M21.952 31.798c.398-2.477.594-5.949.686-8.212l-.99-.269-2.858-.775s-2.915 3.537-3.966 7.415c-.689 2.539.612 5.689 1.592 7.56.244.465.657.778 1.122.908 1.424-1.24 3.961-3.799 4.414-6.627z"
        ></path>
        <path
                fill="#0fbaac"
                d="M18.99 38.215c1.791-1.12 4.505-3.181 5.194-5.72 1.051-3.878.311-8.406.311-8.406l-1.857-.503c-.092 2.263-.288 5.735-.686 8.212-.453 2.828-2.99 5.387-4.414 6.627.473.132.999.074 1.452-.21z"
        ></path>
        <path
                fill="#3f5249"
                d="M21.039 18.985c-.839-.05-1.574-.037-1.574-.037s-.498 1.796-1.093 2.906-1.459 1.976-1.459 1.976c.667.331 1.393.628 2.051.874.38-.551.814-1.272 1.048-1.979.349-1.055.808-2.857 1.027-3.74z"
        ></path>
        <path
                fill="#4f655b"
                d="M25.476 26.152s-.309-1.184-.261-2.442c.047-1.259.525-3.06.525-3.06s-1.836-1.122-2.98-1.432c-.475-.129-1.124-.197-1.721-.233-.219.883-.678 2.685-1.027 3.74-.234.707-.668 1.428-1.048 1.979a32.12 32.12 0 002.116.709s2.336.596 4.396.739z"
        ></path>
        <path
                fill="#e85c57"
                d="M57.621 7.58c.208 2.5.14 5.977.059 8.241l-1.006.192-2.91.556s-2.637-3.748-3.391-7.694c-.494-2.584 1.042-5.626 2.162-7.418a1.81 1.81 0 011.187-.82c1.326 1.345 3.661 4.089 3.899 6.943z"
        ></path>
        <path
                fill="#f1908b"
                d="M55.154.957c1.701 1.252 4.251 3.513 4.745 6.098.754 3.946-.329 8.405-.329 8.405l-1.89.361c.081-2.264.149-5.741-.059-8.241-.238-2.854-2.573-5.598-3.899-6.943a1.813 1.813 0 011.432.32z"
        ></path>
        <path
                fill="#3f5249"
                d="M55.737 20.287c-.84-.014-1.573-.083-1.573-.083s-.359-1.829-.868-2.981-1.305-2.081-1.305-2.081c.69-.279 1.437-.52 2.111-.715.337.578.715 1.33.895 2.053.267 1.078.588 2.91.74 3.807z"
        ></path>
        <path
                fill="#4f655b"
                d="M60.705 13.477s-.397 1.157-.445 2.416c-.049 1.258.291 3.091.291 3.091s-1.916.979-3.08 1.201c-.484.093-1.136.111-1.734.102-.152-.897-.473-2.729-.74-3.807-.18-.723-.558-1.475-.895-2.053 1.197-.346 2.164-.546 2.164-.546s2.374-.418 4.439-.404zM130.947 22.144c-22.05 0-45.573-7.268-45.808-7.341a.973.973 0 01.58-1.857c.233.072 23.481 7.253 45.228 7.253 21.72 0 38.198-6.455 38.363-6.521a.973.973 0 01.719 1.808c-.168.067-16.993 6.658-39.082 6.658z"
        ></path>
        <path
                fill="#357fc2"
                d="M148.128 7.665c.33 2.487 1.138 5.87 1.7 8.064l1.025-.027 2.961-.078s1.776-4.225 1.671-8.241c-.069-2.63-2.22-5.274-3.696-6.785a1.807 1.807 0 00-1.335-.548c-1.008 1.596-2.704 4.776-2.326 7.615z"
        ></path>
        <path
                fill="#6299d2"
                d="M149.123.668c-1.394 1.586-3.402 4.34-3.333 6.97.106 4.016 2.115 8.141 2.115 8.141l1.923-.05c-.562-2.194-1.37-5.577-1.7-8.064-.378-2.839 1.318-6.019 2.326-7.615a1.809 1.809 0 00-1.331.618z"
        ></path>
        <path
                fill="#3f5249"
                d="M152.68 19.677c.818-.193 1.519-.416 1.519-.416s-.039-1.864.212-3.098c.251-1.234.831-2.312.831-2.312a22.453 22.453 0 00-2.216-.248c-.206.636-.414 1.452-.435 2.197-.032 1.11.046 2.968.089 3.877z"
        ></path>
        <path
                fill="#4f655b"
                d="M146.373 14.085s.635 1.045.951 2.264c.316 1.219.375 3.083.375 3.083s2.081.547 3.266.516c.492-.013 1.133-.135 1.715-.271-.043-.909-.121-2.767-.089-3.877.021-.745.229-1.561.435-2.197-1.243-.082-2.23-.071-2.23-.071s-2.409.098-4.423.553z"
        ></path>
        <path
                fill="#f9da76"
                d="M112.479 31.932c.172-2.503.764-5.93 1.186-8.155l1.024-.038 2.96-.11s2.041 4.103 2.191 8.118c.097 2.629-1.881 5.404-3.258 7.006-.342.398-.816.61-1.298.631-1.107-1.529-3.001-4.595-2.805-7.452z"
        ></path>
        <path
                fill="#f7c569"
                d="M113.917 38.852c-1.492-1.495-3.671-4.115-3.769-6.745-.149-4.014 1.594-8.259 1.594-8.259l1.923-.071c-.422 2.225-1.014 5.652-1.186 8.155-.196 2.857 1.698 5.923 2.805 7.452a1.808 1.808 0 01-1.367-.532z"
        ></path>
        <path
                fill="#3f5249"
                d="M116.26 19.656c.829.14 1.543.319 1.543.319s.079 1.862.408 3.078a9.555 9.555 0 00.976 2.254c-.724.172-1.499.297-2.195.388-.246-.622-.506-1.422-.575-2.164-.101-1.107-.142-2.965-.157-3.875z"
        ></path>
        <path
                fill="#4f655b"
                d="M110.321 25.637s.567-1.084.805-2.321c.238-1.236.179-3.1.179-3.1s2.042-.678 3.226-.722c.493-.018 1.14.062 1.729.162.015.91.056 2.768.157 3.875.069.742.329 1.542.575 2.164-1.236.161-2.222.213-2.222.213s-2.41.054-4.449-.271zM208.391 22.144c-22.088 0-38.914-6.591-39.081-6.658a.973.973 0 11.719-1.808c.164.065 16.665 6.521 38.362 6.521 21.747 0 44.996-7.181 45.228-7.253a.972.972 0 11.58 1.857c-.235.073-23.758 7.341-45.808 7.341z"
        ></path>
        <path
                fill="#00ac8b"
                d="M190.432 31.798c.398-2.477.594-5.949.686-8.212l-.99-.269-2.858-.775s-2.915 3.537-3.966 7.415c-.689 2.539.612 5.689 1.592 7.56.244.465.657.778 1.122.908 1.424-1.24 3.961-3.799 4.414-6.627z"
        ></path>
        <path
                fill="#0fbaac"
                d="M187.47 38.215c1.791-1.12 4.505-3.181 5.194-5.72 1.051-3.878.311-8.406.311-8.406l-1.857-.503c-.092 2.263-.288 5.735-.686 8.212-.453 2.828-2.99 5.387-4.414 6.627.473.132.999.074 1.452-.21z"
        ></path>
        <path
                fill="#3f5249"
                d="M189.519 18.985c-.839-.05-1.574-.037-1.574-.037s-.498 1.796-1.093 2.906-1.459 1.976-1.459 1.976c.667.331 1.393.628 2.051.874.38-.551.814-1.272 1.048-1.979.349-1.055.808-2.857 1.027-3.74z"
        ></path>
        <path
                fill="#4f655b"
                d="M193.956 26.152s-.309-1.184-.261-2.442c.047-1.259.525-3.06.525-3.06s-1.836-1.122-2.98-1.432c-.475-.129-1.124-.197-1.721-.233-.219.883-.678 2.685-1.027 3.74-.234.707-.668 1.428-1.048 1.979a32.12 32.12 0 002.116.709s2.336.596 4.396.739z"
        ></path>
        <path
                fill="#e85c57"
                d="M226.101 7.58c.208 2.5.14 5.977.06 8.241l-1.007.192-2.911.556s-2.636-3.748-3.39-7.694c-.494-2.584 1.043-5.626 2.161-7.418a1.815 1.815 0 011.188-.82c1.325 1.345 3.661 4.089 3.899 6.943z"
        ></path>
        <path
                fill="#f1908b"
                d="M223.634.957c1.701 1.252 4.251 3.513 4.745 6.098.754 3.946-.329 8.405-.329 8.405l-1.889.361c.08-2.264.148-5.741-.06-8.241-.238-2.854-2.574-5.598-3.899-6.943a1.813 1.813 0 011.432.32z"
        ></path>
        <path
                fill="#3f5249"
                d="M224.217 20.287c-.841-.014-1.574-.083-1.574-.083s-.358-1.829-.867-2.981-1.305-2.081-1.305-2.081c.69-.279 1.437-.52 2.111-.715.337.578.715 1.33.895 2.053.266 1.078.588 2.91.74 3.807z"
        ></path>
        <path
                fill="#4f655b"
                d="M229.185 13.477s-.397 1.157-.445 2.416c-.049 1.258.291 3.091.291 3.091s-1.916.979-3.08 1.201c-.484.093-1.136.111-1.734.102-.152-.897-.474-2.729-.74-3.807-.18-.723-.558-1.475-.895-2.053 1.197-.346 2.164-.546 2.164-.546s2.374-.418 4.439-.404zM376.972 22.145c-22.088 0-38.914-6.592-39.081-6.658a.972.972 0 11.719-1.808c.164.065 16.665 6.521 38.362 6.521 21.748 0 46.275-7.421 46.275-7.421l.172.806-.11 1.028s-24.286 7.532-46.337 7.532z"
        ></path>
        <path
                fill="#00ac8b"
                d="M359.014 31.799c.397-2.477.594-5.95.685-8.213l-.989-.268-2.859-.775s-2.914 3.537-3.966 7.414c-.688 2.54.613 5.69 1.593 7.561.243.465.657.778 1.121.908 1.424-1.24 3.961-3.799 4.415-6.627z"
        ></path>
        <path
                fill="#0fbaac"
                d="M356.052 38.216c1.791-1.12 4.505-3.181 5.193-5.721 1.052-3.877.311-8.405.311-8.405l-1.857-.504c-.091 2.263-.288 5.736-.685 8.213-.454 2.828-2.991 5.387-4.415 6.627.474.131.999.073 1.453-.21z"
        ></path>
        <path
                fill="#3f5249"
                d="M358.1 18.986c-.838-.051-1.574-.037-1.574-.037s-.498 1.796-1.092 2.906c-.595 1.11-1.46 1.976-1.46 1.976.667.33 1.394.628 2.051.873.38-.55.814-1.271 1.048-1.979.349-1.054.808-2.856 1.027-3.739z"
        ></path>
        <path
                fill="#4f655b"
                d="M362.537 26.153s-.308-1.184-.261-2.442c.048-1.259.526-3.061.526-3.061s-1.837-1.121-2.981-1.431c-.475-.129-1.124-.197-1.721-.233-.219.883-.678 2.685-1.027 3.739-.234.708-.668 1.429-1.048 1.979a32.25 32.25 0 002.117.709s2.335.597 4.395.74z"
        ></path>
        <path
                fill="#e85c57"
                d="M394.682 7.581c.208 2.5.14 5.977.06 8.241l-1.007.192-2.909.556s-2.638-3.748-3.392-7.694c-.494-2.585 1.043-5.627 2.162-7.418a1.812 1.812 0 011.188-.82c1.325 1.344 3.661 4.089 3.898 6.943z"
        ></path>
        <path
                fill="#f1908b"
                d="M392.216.957c1.7 1.253 4.25 3.514 4.744 6.099.754 3.945-.328 8.404-.328 8.404l-1.89.362c.08-2.264.148-5.741-.06-8.241-.237-2.854-2.573-5.599-3.898-6.943a1.81 1.81 0 011.432.319z"
        ></path>
        <path
                fill="#3f5249"
                d="M392.799 20.287c-.841-.013-1.573-.082-1.573-.082s-.36-1.829-.869-2.981-1.305-2.081-1.305-2.081a22.18 22.18 0 012.112-.715c.337.577.714 1.329.894 2.053.268 1.078.589 2.909.741 3.806z"
        ></path>
        <path
                fill="#4f655b"
                d="M397.767 13.478s-.398 1.157-.446 2.415c-.048 1.259.292 3.092.292 3.092s-1.917.978-3.081 1.201c-.484.092-1.136.111-1.733.101-.152-.897-.473-2.728-.741-3.806-.18-.724-.557-1.476-.894-2.053 1.197-.346 2.164-.546 2.164-.546s2.374-.418 4.439-.404zM299.427 22.144c-22.051 0-45.573-7.268-45.808-7.341a.973.973 0 01.58-1.857c.232.072 23.481 7.253 45.228 7.253 21.72 0 38.198-6.455 38.362-6.521a.973.973 0 11.719 1.808c-.167.067-16.993 6.658-39.081 6.658z"
        ></path>
        <path
                fill="#357fc2"
                d="M316.607 7.665c.331 2.487 1.139 5.87 1.701 8.064l1.024-.027 2.961-.078s1.777-4.225 1.671-8.241c-.069-2.63-2.219-5.274-3.695-6.785a1.81 1.81 0 00-1.335-.548c-1.008 1.596-2.704 4.776-2.327 7.615z"
        ></path>
        <path
                fill="#6299d2"
                d="M317.603.668c-1.394 1.586-3.403 4.34-3.333 6.97.105 4.016 2.114 8.141 2.114 8.141l1.924-.05c-.562-2.194-1.37-5.577-1.701-8.064-.377-2.839 1.319-6.019 2.327-7.615a1.809 1.809 0 00-1.331.618z"
        ></path>
        <path
                fill="#3f5249"
                d="M321.16 19.677c.818-.193 1.518-.416 1.518-.416s-.039-1.864.213-3.098c.251-1.234.831-2.312.831-2.312a22.453 22.453 0 00-2.216-.248c-.206.636-.415 1.452-.436 2.197-.031 1.11.046 2.968.09 3.877z"
        ></path>
        <path
                fill="#4f655b"
                d="M314.852 14.085s.636 1.045.951 2.264c.316 1.219.375 3.083.375 3.083s2.082.547 3.266.516c.493-.013 1.134-.135 1.716-.271-.044-.909-.121-2.767-.09-3.877.021-.745.23-1.561.436-2.197-1.243-.082-2.231-.071-2.231-.071s-2.408.098-4.423.553z"
        ></path>
        <path
                fill="#f9da76"
                d="M280.959 31.932c.172-2.503.764-5.93 1.185-8.155l1.025-.038 2.96-.11s2.041 4.103 2.19 8.118c.098 2.629-1.88 5.404-3.257 7.006-.342.398-.816.61-1.298.631-1.107-1.529-3.001-4.595-2.805-7.452z"
        ></path>
        <path
                fill="#f7c569"
                d="M282.397 38.852c-1.492-1.495-3.671-4.115-3.769-6.745-.15-4.014 1.594-8.259 1.594-8.259l1.922-.071c-.421 2.225-1.013 5.652-1.185 8.155-.196 2.857 1.698 5.923 2.805 7.452a1.805 1.805 0 01-1.367-.532z"
        ></path>
        <path
                fill="#3f5249"
                d="M284.74 19.656c.829.14 1.542.319 1.542.319s.08 1.862.409 3.078c.329 1.215.975 2.254.975 2.254-.724.172-1.499.297-2.195.388-.246-.622-.506-1.422-.574-2.164-.102-1.107-.143-2.965-.157-3.875z"
        ></path>
        <path
                fill="#4f655b"
                d="M278.8 25.637s.568-1.084.806-2.321c.238-1.236.178-3.1.178-3.1s2.043-.678 3.227-.722c.492-.018 1.14.062 1.729.162.014.91.055 2.768.157 3.875.068.742.328 1.542.574 2.164-1.235.161-2.221.213-2.221.213s-2.411.054-4.45-.271z"
        ></path>
    </g>
</svg>
