<svg
        xmlns="http://www.w3.org/2000/svg"
        fillRule="evenodd"
        strokeLinejoin="round"
        strokeMiterlimit="2"
        clipRule="evenodd"
        viewBox="0 0 350 487"
>
    <path
            fillRule="nonzero"
            d="M183.313 271.289c-10.501 0-19.042 8.543-19.042 19.042 0 10.5 8.542 19.043 19.042 19.043 10.5 0 19.043-8.543 19.043-19.043 0-10.499-8.542-19.042-19.043-19.042zm0 26.648c-4.193 0-7.605-3.411-7.605-7.605 0-4.193 3.412-7.605 7.605-7.605 4.193 0 7.605 3.412 7.605 7.605 0 4.194-3.412 7.605-7.605 7.605zM183.313 345.584c-10.501 0-19.042 8.543-19.042 19.044 0 10.5 8.542 19.042 19.042 19.042 10.5 0 19.043-8.543 19.043-19.042 0-10.5-8.542-19.044-19.043-19.044zm0 26.649c-4.193 0-7.605-3.412-7.605-7.605 0-4.194 3.412-7.606 7.605-7.606 4.193 0 7.605 3.411 7.605 7.606 0 4.193-3.412 7.605-7.605 7.605z"
    ></path>
    <circle cx="198.062" cy="143.016" r="8.318"></circle>
    <circle cx="156.948" cy="143.016" r="8.318"></circle>
    <path
            fillRule="nonzero"
            d="M160.571 178.893a5.732 5.732 0 00-4.045 1.684 5.716 5.716 0 00-1.674 4.035 5.72 5.72 0 005.719 5.719 5.715 5.715 0 004.034-1.675 5.73 5.73 0 001.685-4.044 5.727 5.727 0 00-1.685-4.035 5.724 5.724 0 00-4.034-1.684zM173.516 192.264a5.732 5.732 0 005.813-5.635c.052-3.151-2.475-5.75-5.636-5.802-3.151-.052-5.76 2.475-5.802 5.625a5.722 5.722 0 005.625 5.812zM205.302 176.013a5.747 5.747 0 003.816 1.455c1.57 0 3.13-.644 4.263-1.913 2.101-2.35 1.903-5.968-.447-8.068a5.722 5.722 0 00-8.079.447c-2.111 2.35-1.903 5.968.447 8.079zM186.701 190.746a5.713 5.713 0 005.542-7.122c-.78-3.067-3.889-4.918-6.946-4.138a5.711 5.711 0 00-4.138 6.945 5.722 5.722 0 005.542 4.315zM196.007 175.119a5.717 5.717 0 00-2.049 7.819 5.732 5.732 0 007.83 2.048 5.732 5.732 0 002.048-7.829 5.718 5.718 0 00-7.829-2.038zM216.064 166.28a5.74 5.74 0 004.045-1.674 5.766 5.766 0 001.674-4.044 5.804 5.804 0 00-1.674-4.045 5.782 5.782 0 00-4.045-1.674 5.764 5.764 0 00-4.045 1.674 5.787 5.787 0 00-1.674 4.045c0 1.507.614 2.984 1.674 4.044a5.74 5.74 0 004.045 1.674z"
    ></path>
    <path
            fillRule="nonzero"
            d="M350 273.68c0-21.798-17.739-39.532-39.543-39.532a39.472 39.472 0 00-20.832 5.927v-12.93c0-9.438-4.709-17.793-11.896-22.853 4.273-11.33 6.443-23.254 6.443-35.515 0-22.683-7.626-44.567-21.552-62.275a13.738 13.738 0 002.519-3.747l1.547-3.4a34.668 34.668 0 00.322-27.925 34.475 34.475 0 00-9.411-12.738c.278-3.904.177-7.712-.301-11.366 6.718-4.876 10.759-12.642 10.759-21.144C268.055 11.745 256.311 0 241.873 0a26.141 26.141 0 00-20.849 10.367c-17.285-1.33-36.222 8.218-48.776 25.89a34.495 34.495 0 00-18.321 7.673 34.674 34.674 0 00-12.538 24.954l-.187 3.733a13.751 13.751 0 00.464 4.287c-35.703 16.215-59.21 52.231-59.21 91.873 0 12.261 2.17 24.186 6.442 35.515-7.187 5.06-11.896 13.414-11.896 22.853v12.93a39.481 39.481 0 00-20.832-5.927 39.33 39.33 0 00-15.098 3.001v-26.538c6.765-1.074 11.958-6.93 11.958-13.992v-4.902c0-3.118-1.023-5.995-2.735-8.338a22.701 22.701 0 004.821-5.837 117.048 117.048 0 0015.589-58.321V84.472a5.718 5.718 0 00-5.719-5.719H5.719A5.718 5.718 0 000 84.472v34.75c0 20.441 5.391 40.608 15.589 58.321a22.755 22.755 0 004.821 5.837 14.083 14.083 0 00-2.735 8.338v4.902c0 7.062 5.193 12.918 11.958 13.992v33.785c-7.985 7.238-13.008 17.686-13.008 29.284 0 11.602 5.023 22.052 13.008 29.292v156.859a5.718 5.718 0 1011.437 0V310.221a39.286 39.286 0 0014.059 2.976c-3.848 12.576-5.876 25.747-5.876 39.091 0 73.919 60.138 134.058 134.059 134.058 73.921 0 134.059-60.139 134.059-134.058 0-13.345-2.028-26.515-5.876-39.091C332.821 312.642 350 295.136 350 273.68zM11.438 119.222V90.19h47.829v29.032a105.6 105.6 0 01-14.064 52.615 11.394 11.394 0 01-9.851 5.695 11.396 11.396 0 01-9.85-5.695 105.594 105.594 0 01-14.064-52.615zm17.676 72.496a2.752 2.752 0 012.748-2.749h6.982a2.752 2.752 0 012.748 2.749v4.902a2.751 2.751 0 01-2.748 2.748h-6.982a2.751 2.751 0 01-2.748-2.748v-4.902zm212.759-180.28c8.13 0 14.744 6.614 14.744 14.744a14.69 14.69 0 01-2.681 8.493c-3.386-8.091-8.907-14.766-16.196-19.091a37.692 37.692 0 00-3.671-1.903 14.708 14.708 0 017.804-2.243zm-9.969 13.981c8.603 5.105 13.788 15.063 14.362 26.893-19.517-6.782-39.721-11.83-60.141-15.067 13.378-14.636 32.154-19.91 45.779-11.826zm-79.092 44.039a23.21 23.21 0 018.393-16.705c5.046-4.162 11.38-5.949 17.831-5.031a339.38 339.38 0 0163.925 15.544c6.154 2.149 10.96 6.645 13.531 12.659a23.21 23.21 0 01-.216 18.694l-1.546 3.4a2.204 2.204 0 01-2.891 1.106A307.683 307.683 0 00154.686 75.5a2.203 2.203 0 01-2.06-2.309l.186-3.733zm-58.92 99.319c0-36.339 22.279-69.241 55.754-82.857 1.298.527 2.696.872 4.176.984a296.238 296.238 0 0193.548 22.748c1.272.541 2.576.869 3.877 1.016a89.228 89.228 0 0121.488 58.108c0 10.692-1.856 21.093-5.517 30.981a27.921 27.921 0 00-5.531-.552H104.94c-1.894 0-3.742.191-5.531.552-3.661-9.887-5.517-20.287-5.517-30.98zm-5.454 58.368c0-9.099 7.403-16.501 16.502-16.501h156.746c9.099 0 16.502 7.402 16.502 16.501v20.825a5.829 5.829 0 01-5.822 5.821H94.26a5.829 5.829 0 01-5.822-5.821v-20.825zm56.64 86.734c2.871 16.175 5.595 31.523 1.437 46.654h-30.319c3.732-16.575.845-32.848-1.961-48.652-2.871-16.175-5.578-31.521-1.421-46.651h30.306c-3.73 16.574-.847 32.844 1.958 48.649zm-88.909-12.094c-15.497 0-28.105-12.608-28.105-28.105 0-15.491 12.608-28.095 28.105-28.095a28.06 28.06 0 0126.346 18.352 134.55 134.55 0 00-23.263 37.679 28.608 28.608 0 01-3.083.169zm127.144 173.124c-67.614 0-122.621-55.008-122.621-122.621 0-32.625 13.186-64.131 36.297-87.059h4.028c-3.731 16.574-.848 32.845 1.956 48.65 3.113 17.533 6.052 34.093.242 50.46a5.72 5.72 0 005.389 7.632h42.105a5.72 5.72 0 005.389-3.806c6.822-19.215 3.476-38.06.241-56.285-2.871-16.175-5.578-31.521-1.421-46.651h114.72c23.11 22.928 36.295 54.435 36.295 87.059.001 67.613-55.006 122.621-122.62 122.621zm127.144-173.124a28.64 28.64 0 01-3.084-.169 134.55 134.55 0 00-23.263-37.679 28.06 28.06 0 0126.346-18.352c15.497 0 28.105 12.604 28.105 28.095.001 15.497-12.607 28.105-28.104 28.105z"
    ></path>
</svg>
